<?xml version="1.0" encoding="utf-8"?>
<!-- Generator: Adobe Illustrator 21.0.0, SVG Export Plug-In . SVG Version: 6.00 Build 0)  -->
<svg version="1.1" id="Capa_1" xmlns="http://www.w3.org/2000/svg" xmlns:xlink="http://www.w3.org/1999/xlink" x="0px" y="0px"
	 viewBox="0 0 1190.5 841.9" style="enable-background:new 0 0 1190.5 841.9;" xml:space="preserve">
<style type="text/css">
	.st0{fill:#D22939;}
	.st1{fill:#FFFFFF;}
</style>
<rect x="-29.1" y="-30" class="st0" width="1330" height="930"/>
<path class="st0" d="M-628.6,459.6c-3.2,0-5.9,2.5-5.9,5.8c0,3.3,2.7,5.8,5.9,5.8c3.1,0,5.8-2.5,5.8-5.8
	C-622.8,462.1-625.4,459.6-628.6,459.6 M-628.6,470.3c-2.7,0-4.8-2.1-4.8-4.9c0-2.8,2.1-4.9,4.8-4.9c2.7,0,4.7,2.1,4.7,4.9
	C-623.8,468.2-625.9,470.3-628.6,470.3"/>
<path class="st0" d="M-625.8,463.9c0-1.3-0.8-1.9-2.4-1.9h-2.6v6.8h1v-2.9h1.1l1.8,2.9h1.1l-1.9-3.1
	C-626.6,465.7-625.8,465.2-625.8,463.9 M-628.7,465h-1.1v-2.2h1.4c0.7,0,1.5,0.1,1.5,1C-626.9,464.9-627.8,465-628.7,465"/>
<polygon class="st1" points="651.8,424 630.9,444.7 630.9,424 592.5,424 592.5,425.8 629.1,425.8 629.1,449.2 652.5,425.8 
	740.3,425.8 740.3,424 "/>
<polygon class="st1" points="519.8,425.8 534.1,425.8 534.1,424 505.6,424 481.8,493.3 481.5,493.3 457.8,424 428.7,424 
	428.7,425.8 443,425.8 443,513.9 428.7,513.9 428.7,515.7 459.3,515.7 459.3,513.9 445,513.9 445,427.5 445.2,427.5 475.9,515.8 
	506.7,426.6 506.9,426.6 506.9,513.9 492.6,513.9 492.6,515.7 534.1,515.7 534.1,513.9 519.8,513.9 "/>
<path class="st1" d="M584.7,514.4c-1,0.3-2,0.6-3,0.6c-1.5,0-2.5-0.5-3.3-1.3c-0.8-0.8-1.1-2.5-1.1-5v-32c0-2.4-0.3-4.6-1-6.6
	c-0.7-2.1-1.8-4-3.5-5.7c-1.6-1.7-3.8-3-6.4-4c-2.6-1-6-1.5-9.9-1.5c-3.2,0-6.2,0.4-8.7,1.1c-2.5,0.8-4.7,1.8-6.4,3.2
	c-1.6,1.3-2.9,2.9-3.7,4.6c-0.9,1.7-1.3,3.5-1.3,5.4c0,1.6,0.3,3,1,4c0.7,1,2.5,1.6,5.3,1.6c1.6,0,2.8-0.4,3.7-1.2
	c0.9-0.8,1.3-1.8,1.3-3c0-0.7-0.2-1.8-0.4-3.2c-0.2-1.5-0.4-2.9-0.4-4.3c0-2.3,0.8-3.9,2.8-4.8c1.8-1,4.2-1.5,7-1.5
	c2.2,0,3.9,0.3,5.2,0.9c1.3,0.6,2.2,1.5,2.9,2.6c0.7,1.2,1.2,2.5,1.4,4.1c0.3,1.7,0.4,3.5,0.4,5.6c0,2.6-0.1,4.6-0.6,6.2
	c-0.4,1.5-1,2.7-2.1,3.7c-1,1-2.5,1.8-4.3,2.5c-1.8,0.7-4.2,1.5-7.1,2.5c-2.4,0.7-4.8,1.5-7.1,2.2c-2.4,0.7-4.5,1.5-6.5,2.6
	c-1.9,1-3.5,2.5-4.7,4.3c-1.2,1.7-1.7,4.2-1.7,7.2c0,1.3,0.1,2.6,0.6,4.1c0.4,1.6,1.1,2.9,2.3,4.1c1.2,1.2,2.9,2.2,5,3
	c2.2,0.9,5,1.3,8.7,1.3c3.2,0,5.8-0.4,7.9-1.1c2.1-0.8,3.7-1.7,4.9-2.7c1.3-1.1,2.2-2.2,2.8-3.3c0.7-1.2,1.1-2.2,1.5-2.9h0.2
	c0.7,3.2,1.9,5.7,3.8,7.4c1.8,1.7,4.9,2.6,9,2.6c2.2,0,4-0.3,5.6-0.9c1.6-0.7,2.9-1.5,4-2.3l-1-1.4
	C586.8,513.6,585.7,514.1,584.7,514.4 M566.2,497c0,1.7-0.1,3.7-0.5,5.7c-0.3,2.1-0.9,4.1-1.8,5.8c-0.9,1.8-2.2,3.3-4,4.5
	c-1.7,1.2-4,1.8-6.9,1.8c-1.9,0-3.5-0.3-4.9-1c-1.2-0.7-2.2-1.6-2.9-2.7c-0.7-1-1.2-2.3-1.5-3.7c-0.2-1.4-0.3-2.7-0.3-4
	c0-3,0.8-5.5,2.2-7.5c1.5-2,3.6-3.6,6.4-4.7l9.6-3.9c2.7-1.1,4.1-2.2,4.3-3.3h0.2V497z"/>
<path class="st1" d="M640.1,460.5h-18.3h-2.7h-15.6v-9.2v-8.1h-11.1v0.7v7.4v9.2h-9.9v1.8h9.9v40.9c0,4.6,1.3,8.1,3.8,10.5
	c2.5,2.5,7,3.8,13.4,3.8c2.6,0,4.7-0.4,6.5-1.3c1.1-0.5,2.1-1.2,3-1.9v1.4h30.9v-1.7h-9.9V460.5z M629.1,513.9h-9.4
	c0.2-0.2,0.5-0.5,0.7-0.8c1.1-1.3,1.9-2.5,2.4-3.9c0.5-1.4,0.9-2.6,1.2-3.8l-1.8-0.6c-0.6,2.8-1.7,5.3-3.5,7.5
	c-1.9,2.2-4.3,3.2-7.3,3.2c-0.9,0-1.7-0.1-2.6-0.4c-0.9-0.2-1.7-0.8-2.5-1.6c-0.8-0.8-1.4-2-1.9-3.5c-0.5-1.5-0.7-3.4-0.7-5.8v-42.1
	h15.6h2.7h7.2V513.9z"/>
<path class="st1" d="M754.6,459.6c-3.2,0-5.9,2.5-5.9,5.8c0,3.3,2.7,5.8,5.9,5.8c3.1,0,5.8-2.5,5.8-5.8
	C760.4,462.1,757.7,459.6,754.6,459.6 M754.6,470.3c-2.7,0-4.8-2.1-4.8-4.9c0-2.8,2.1-4.9,4.8-4.9c2.7,0,4.7,2.1,4.7,4.9
	C759.3,468.2,757.2,470.3,754.6,470.3"/>
<path class="st1" d="M757.3,463.9c0-1.3-0.8-1.9-2.4-1.9h-2.6v6.8h1v-2.9h1.1l1.8,2.9h1.1l-1.9-3.1
	C756.5,465.7,757.3,465.2,757.3,463.9 M754.4,465h-1.1v-2.2h1.4c0.7,0,1.5,0.1,1.5,1C756.2,464.9,755.4,465,754.4,465"/>
<path class="st1" d="M741.1,351.3c-1-1-2.3-1.8-4-2.3l-3.7-1.2c-1.5-0.5-2.7-1-3.4-1.6c-0.8-0.6-1.2-1.4-1.2-2.5
	c0-1.2,0.5-2.2,1.4-3c0.9-0.7,2.2-1.1,3.8-1.1c0.9,0,1.6,0.1,2.3,0.5c0.6,0.3,1.1,0.7,1.6,1.3c0.4,0.6,0.8,1.2,1.1,1.9
	c0.3,0.7,0.6,1.4,0.9,2.2h0.5v-5.8h-0.5c-0.2,0.3-0.5,0.4-0.9,0.4c-0.4,0-0.7-0.1-1-0.2c-0.3-0.1-0.6-0.3-0.9-0.3
	c-0.3-0.2-0.8-0.3-1.3-0.4c-0.5-0.1-1-0.2-1.8-0.2c-1,0-2.1,0.2-3,0.5c-0.9,0.3-1.7,0.8-2.3,1.4c-0.7,0.6-1.2,1.4-1.6,2.2
	c-0.3,0.8-0.6,1.7-0.6,2.7c0,1.1,0.2,2.1,0.5,2.8c0.3,0.7,0.7,1.3,1.3,1.8c0.5,0.5,1.1,0.8,1.7,1.1c0.6,0.2,1.2,0.5,1.7,0.6l4,1.4
	c0.9,0.3,1.7,0.7,2.3,1.3c0.7,0.5,1,1.4,1,2.7c0,1.5-0.4,2.6-1.3,3.3c-0.9,0.7-1.8,1-2.9,1c-1.3,0-2.5-0.2-3.4-0.7
	c-0.9-0.5-1.7-1-2.3-1.8c-0.6-0.7-1.1-1.4-1.5-2.3c-0.3-0.8-0.7-1.7-0.9-2.5h-0.6v7.2h0.6c0.1-0.2,0.2-0.3,0.4-0.5
	c0.1-0.1,0.5-0.2,0.8-0.2c0.3,0,0.8,0.1,1.3,0.2c0.5,0.2,0.9,0.3,1.4,0.5c0.6,0.2,1.1,0.3,1.8,0.5c0.6,0.2,1.4,0.2,2.1,0.2
	c1.3,0,2.5-0.2,3.5-0.6c1-0.4,1.8-0.9,2.6-1.6c0.7-0.7,1.2-1.4,1.6-2.3c0.4-0.9,0.6-1.8,0.6-2.7
	C742.7,353.5,742.2,352.2,741.1,351.3"/>
<path class="st1" d="M603.2,361.7c0.6,0,1.1,0,1.6,0.1c0.5,0,1,0.1,1.5,0.1c0.5,0,0.9,0,1.4,0c2.4,0,4.5-0.3,6.2-0.8
	c1.8-0.5,3.3-1.3,4.4-2.2c1.2-0.9,2.1-2,2.7-3.3c0.6-1.3,0.9-2.7,0.9-4.3c0-1.4-0.3-2.8-1-3.9c-0.6-1.1-1.5-2.1-2.6-2.9
	c-1-0.8-2.2-1.4-3.5-1.8c-1.3-0.4-2.6-0.7-3.8-0.8v-0.1c1.2-0.1,2.4-0.4,3.4-0.9c1.1-0.5,2.1-1,2.9-1.7c0.8-0.7,1.5-1.6,2-2.6
	c0.5-1,0.7-2,0.7-3.1c0-0.9-0.2-1.8-0.5-2.8c-0.3-1-1-2-1.9-2.8c-0.9-0.9-2.2-1.6-3.8-2.2c-1.6-0.6-3.7-0.9-6.2-0.9
	c-0.5,0-1,0-1.5,0c-0.5,0-1.1,0-1.6,0c-0.6,0-1.1,0-1.6,0.1c-0.5,0-1,0-1.5,0h-9v0.7h5.7V361h-5.7v0.7h9
	C602.1,361.7,602.7,361.7,603.2,361.7 M603.3,325.7c0.5-0.1,1-0.1,1.6-0.1c0.6,0,1.3,0,1.8,0c0.9,0,1.8,0.1,2.7,0.3
	c0.9,0.2,1.7,0.5,2.5,1.1c0.7,0.5,1.3,1.4,1.8,2.4c0.5,1.1,0.7,2.5,0.7,4.3c0,1.6-0.2,2.9-0.5,3.9c-0.3,1-0.7,1.8-1.3,2.4
	c-0.6,0.6-1.3,1-2.1,1.3c-0.8,0.2-1.7,0.3-2.6,0.3h-4.7V325.7z M603.3,342.4h5.7c2.3,0,4.1,0.8,5.2,2.3c1.1,1.6,1.7,3.8,1.7,6.5
	c0,1.9-0.2,3.5-0.5,4.8c-0.3,1.3-0.9,2.3-1.6,3c-0.7,0.8-1.7,1.3-2.8,1.6c-1.1,0.3-2.5,0.5-4.2,0.5c-0.9,0-1.6,0-2.1-0.1
	c-0.5,0-1-0.1-1.4-0.1V342.4z"/>
<path class="st1" d="M625.3,354.9c0,1,0.1,1.9,0.3,2.6c0.2,0.7,0.4,1.3,0.6,1.7c0.2,0.5,0.5,0.8,0.8,1.1c0.3,0.3,0.6,0.5,0.8,0.6
	c0.5,0.3,1.1,0.7,2,1c0.9,0.3,2,0.5,3.4,0.5c1.1,0,2.1-0.2,2.9-0.5c0.8-0.3,1.6-0.8,2.2-1.4c0.6-0.5,1.2-1.2,1.6-1.9
	c0.5-0.7,0.8-1.4,1.1-2.1h0.1v5.2h8.3V361h-4v-21.4h-8.3v0.7h3.9v11.9c0,1.5-0.2,2.7-0.6,3.9c-0.5,1.1-1,2.1-1.7,2.9
	c-0.6,0.8-1.4,1.5-2.2,1.9c-0.8,0.5-1.6,0.7-2.4,0.7c-0.9,0-1.6-0.2-2.1-0.5c-0.6-0.3-1-0.8-1.4-1.3c-0.3-0.6-0.6-1.2-0.7-2
	c-0.1-0.7-0.2-1.6-0.2-2.5v-15.8h-8.4v0.7h3.9V354.9z"/>
<path class="st1" d="M655.2,348.9H671c0-1.9-0.3-3.5-1-4.7c-0.6-1.3-1.4-2.3-2.4-3.1c-0.9-0.8-2-1.3-3-1.7c-1.1-0.3-2.2-0.5-3.1-0.5
	c-1.6,0-3.1,0.3-4.6,1c-1.4,0.7-2.6,1.5-3.7,2.6c-1.1,1.1-1.9,2.4-2.5,3.8c-0.6,1.4-0.9,2.9-0.9,4.4c0,1.7,0.3,3.3,0.9,4.7
	c0.6,1.4,1.4,2.6,2.5,3.7c1.1,1,2.3,1.8,3.8,2.3c1.4,0.5,3,0.8,4.7,0.8c1.7,0,3.1-0.2,4.2-0.8c1.1-0.5,1.9-1.1,2.6-1.8
	c0.6-0.7,1.1-1.4,1.4-2.1c0.3-0.7,0.5-1.3,0.6-1.6l-0.8-0.2c-0.2,0.4-0.3,1-0.6,1.6c-0.3,0.7-0.7,1.4-1.3,2
	c-0.6,0.6-1.4,1.2-2.3,1.6c-1,0.4-2.2,0.7-3.7,0.7c-1.5,0-2.7-0.3-3.7-1c-0.9-0.6-1.6-1.4-2.1-2.5c-0.5-1-0.8-2.1-0.9-3.3
	c-0.1-1.2-0.2-2.4-0.2-3.6c0-0.5,0-1,0-1.4C655.2,349.6,655.2,349.3,655.2,348.9 M655.6,344.9c0.2-1,0.6-1.9,1-2.7
	c0.5-0.8,1-1.4,1.8-1.9c0.7-0.5,1.7-0.7,2.9-0.7c0.6,0,1.3,0.1,1.8,0.3c0.6,0.2,1,0.5,1.4,0.9c0.4,0.5,0.7,1.1,1,1.8
	c0.2,0.7,0.3,1.7,0.3,2.9v1.3c0,0.4,0,0.9-0.1,1.3h-10.6C655.3,347,655.4,346,655.6,344.9"/>
<path class="st1" d="M696.5,345.9c0-2.4-0.7-4.1-2.1-5.3c-1.4-1.1-3.3-1.6-5.5-1.6c-1.5,0-2.7,0.2-3.8,0.7c-1,0.5-1.9,1-2.6,1.7
	c-0.7,0.6-1.2,1.3-1.6,2c-0.4,0.7-0.7,1.3-0.9,1.7h-0.1v-5.5h-8.3v0.7h3.9V361h-3.9v0.7H684V361h-4v-11.7c0-1.4,0.2-2.6,0.7-3.8
	c0.4-1.2,1-2.2,1.8-3c0.7-0.9,1.6-1.5,2.6-2c1-0.5,2-0.7,3.1-0.7c1.3,0,2.3,0.4,3,1.3c0.6,0.9,0.9,2,0.9,3.3V361h-4v0.7h12.4V361h-4
	V345.9z"/>
<path class="st1" d="M720.1,342.2c-1.1-1-2.5-1.8-3.9-2.4c-1.4-0.6-2.8-0.9-4.2-0.9c-1.4,0-2.7,0.3-4.2,0.9
	c-1.4,0.6-2.7,1.4-3.8,2.4c-1.2,1.1-2.1,2.3-2.9,3.8c-0.7,1.4-1.1,3-1.1,4.6c0,1.6,0.3,3.1,1,4.6c0.7,1.4,1.6,2.7,2.7,3.8
	c1.1,1,2.4,1.9,3.8,2.5c1.4,0.6,2.9,0.9,4.4,0.9c1.5,0,3-0.3,4.5-0.9c1.5-0.6,2.7-1.5,3.9-2.5c1.1-1.1,2-2.3,2.7-3.8
	c0.7-1.4,1-2.9,1-4.6c0-1.7-0.4-3.2-1.1-4.6C722.2,344.5,721.2,343.3,720.1,342.2 M718.3,356.5c-0.4,1.4-0.9,2.5-1.5,3.3
	c-0.6,0.8-1.3,1.3-2.1,1.5c-0.9,0.2-1.7,0.4-2.7,0.4c-0.9,0-1.8-0.2-2.6-0.4c-0.8-0.2-1.5-0.7-2.2-1.5c-0.6-0.8-1.1-1.9-1.5-3.3
	c-0.3-1.5-0.5-3.4-0.5-5.9c0-2.1,0.1-3.7,0.4-5.2c0.3-1.4,0.7-2.5,1.3-3.4c0.6-0.9,1.3-1.5,2.2-1.9c0.8-0.4,1.8-0.5,3-0.5
	c1.2,0,2.2,0.2,3.1,0.5c0.8,0.4,1.6,1,2.1,1.9c0.6,0.9,1,2,1.3,3.4c0.3,1.4,0.4,3.1,0.4,5.2C718.8,353.1,718.6,355,718.3,356.5"/>
<path class="st1" d="M626.3,382.9h-8.4v0.7h3.9v20.6h-3.8h-0.2h-3.8v-36.4h-8.4v0.7h4V387h-0.1c-0.5-1.3-1.3-2.5-2.5-3.4
	c-1.2-1-2.7-1.4-4.6-1.4c-1.5,0-2.9,0.3-4.2,1c-1.3,0.6-2.5,1.5-3.5,2.5c-1,1-1.8,2.3-2.4,3.7c-0.6,1.4-0.9,2.9-0.9,4.4
	c0,1.6,0.3,3.1,0.9,4.5c0.6,1.4,1.4,2.7,2.5,3.8c1,1.1,2.2,2,3.6,2.6c1.4,0.7,2.8,1,4.3,1c1.2,0,2.2-0.2,3-0.6
	c0.8-0.4,1.5-0.9,2-1.4c0.5-0.6,0.9-1.1,1.2-1.7c0.3-0.6,0.5-1.1,0.6-1.5h0.1v4.5h8.1h0.2h12.2v-0.7h-4V382.9z M609.5,398.4
	c-0.2,1.2-0.5,2.3-1,3.3c-0.5,1-1.1,1.8-2,2.4c-0.9,0.6-2,0.9-3.5,0.9c-1.4,0-2.5-0.3-3.4-0.8c-0.8-0.6-1.4-1.4-1.8-2.4
	c-0.4-1-0.7-2.3-0.8-3.7c-0.1-1.5-0.2-3.1-0.2-4.9c0-1.6,0.1-3,0.3-4.2c0.2-1.3,0.5-2.3,0.9-3.2c0.4-0.9,1-1.6,1.8-2.1
	c0.8-0.5,1.8-0.7,3-0.7c1.3,0,2.3,0.2,3.2,0.7c0.9,0.4,1.5,1,2,1.7c0.3,0.5,0.6,1,0.9,1.5c0.2,0.5,0.4,1.2,0.6,1.9
	c0.1,0.8,0.2,1.6,0.3,2.6c0.1,0.9,0.1,2.1,0.1,3.4C609.7,396,609.6,397.2,609.5,398.4"/>
<path class="st1" d="M629.5,367.5c-0.3,0.3-0.8,0.8-1.5,1.7l-6.1,7.4h0.7l8.8-6.3c0.2-0.1,0.4-0.3,0.6-0.5c0.2-0.2,0.3-0.5,0.3-0.9
	c0-0.5-0.2-0.9-0.5-1.3c-0.3-0.4-0.8-0.6-1.3-0.6C630.1,367.1,629.7,367.2,629.5,367.5"/>
<path class="st1" d="M742.3,489.7c-2.6-2.4-5.9-4.3-9.9-5.7l-9.4-3.1c-3.8-1.2-6.6-2.5-8.6-3.9c-1.9-1.5-2.9-3.5-2.9-6.3
	c0-3.1,1.1-5.6,3.4-7.4c2.3-1.8,5.5-2.8,9.6-2.8c2.2,0,4,0.4,5.6,1.2c1.6,0.8,2.9,1.8,4,3.2c1.1,1.4,2,3,2.7,4.7
	c0.8,1.8,1.5,3.6,2.1,5.5h1.4v-14.6H739c-0.4,0.7-1.1,1-2.1,1c-0.9,0-1.7-0.2-2.4-0.5c-0.7-0.3-1.5-0.6-2.3-0.9
	c-0.9-0.3-1.9-0.6-3-0.9c-1.1-0.3-2.7-0.5-4.6-0.5c-2.6,0-5.1,0.4-7.4,1.3c-2.3,0.9-4.2,2.1-5.8,3.6c-1.6,1.5-3,3.3-3.9,5.4
	c-0.9,2.1-1.4,4.3-1.4,6.7c0,2.9,0.4,5.1,1.2,7c0.8,1.8,1.9,3.2,3.2,4.5c1.3,1.1,2.7,2.1,4.2,2.6c1.5,0.7,2.9,1.2,4.2,1.6l10,3.5
	c2.3,0.8,4.2,1.8,5.9,3.1c1.7,1.4,2.5,3.6,2.5,6.9c0,3.8-1.1,6.5-3.2,8.1c-2.2,1.7-4.6,2.5-7.4,2.5c-3.3,0-6.1-0.6-8.3-1.6
	c-2.3-1.1-4.3-2.6-5.9-4.3c-1.6-1.7-2.9-3.7-3.8-5.8c-0.9-2.1-1.7-4.1-2.3-6.2h-1.4v16.1c-0.4,0.2-0.9,0.4-1.3,0.6
	c-1,0.3-2,0.6-2.9,0.6c-1.5,0-2.6-0.5-3.4-1.3c-0.8-0.8-1.1-2.5-1.1-5v-32c0-2.4-0.3-4.6-1-6.6c-0.7-2.1-1.9-4-3.5-5.7
	c-1.6-1.7-3.8-3-6.4-4c-2.7-1-5.9-1.5-9.9-1.5c-3.2,0-6.1,0.4-8.7,1.1c-2.5,0.8-4.6,1.8-6.3,3.2c-1.7,1.3-3,2.9-3.8,4.6
	c-0.9,1.7-1.3,3.5-1.3,5.4c0,1.6,0.3,3,1,4c0.7,1,2.5,1.6,5.3,1.6c1.7,0,2.9-0.4,3.8-1.2c0.9-0.8,1.3-1.8,1.3-3
	c0-0.7-0.1-1.8-0.4-3.2c-0.2-1.5-0.4-2.9-0.4-4.3c0-2.3,0.9-3.9,2.8-4.8c1.8-1,4.2-1.5,7-1.5c2.1,0,3.8,0.3,5.1,0.9
	c1.3,0.6,2.3,1.5,3,2.6c0.7,1.2,1.1,2.5,1.4,4.1c0.2,1.7,0.4,3.5,0.4,5.6c0,2.6-0.2,4.6-0.6,6.2c-0.3,1.5-1.1,2.7-2.1,3.7
	c-1,1-2.5,1.8-4.3,2.5c-1.8,0.7-4.2,1.5-7,2.5c-2.4,0.7-4.8,1.5-7.1,2.2c-2.4,0.7-4.5,1.5-6.5,2.6c-1.9,1-3.5,2.5-4.7,4.3
	c-1.2,1.7-1.8,4.2-1.8,7.2c0,1.3,0.2,2.6,0.6,4.1c0.4,1.6,1.2,2.9,2.4,4.1c1.2,1.2,2.9,2.2,5,3c2.1,0.9,5,1.3,8.6,1.3
	c3.2,0,5.8-0.4,7.9-1.1c2.1-0.8,3.7-1.7,4.9-2.7c1.3-1.1,2.2-2.2,2.8-3.3c0.6-1.2,1.1-2.2,1.4-2.9h0.2c0.7,3.2,1.9,5.7,3.8,7.4
	c1.9,1.7,4.9,2.6,9,2.6c2.2,0,4.1-0.3,5.7-0.9c1.2-0.5,2.2-1,3.1-1.7c0,0,0.2-0.1,1.1-0.6c0.2-0.1,0.5-0.2,0.9-0.3c0,0,0,0,0.1,0
	c0.1,0,0.1,0,0.1,0c0.2,0,0.4,0,0.6,0l0,0l0,0c0,0,0,0,0.1,0c0,0,0,0,0,0c1,0,1.9,0.1,3,0.6c1.1,0.4,2.3,0.8,3.7,1.2
	c1.4,0.4,2.8,0.9,4.4,1.2c1.6,0.4,3.3,0.6,5.2,0.6c3.3,0,6.2-0.5,8.7-1.5c2.6-1,4.7-2.4,6.5-4.1c1.8-1.7,3.1-3.6,4-5.8
	c0.9-2.3,1.4-4.5,1.4-6.8C746.2,495.2,744.9,492.1,742.3,489.7 M685,497c0,1.7-0.2,3.7-0.5,5.7c-0.3,2.1-0.9,4.1-1.8,5.8
	c-0.9,1.8-2.2,3.3-4,4.5c-1.7,1.2-4,1.8-6.9,1.8c-2,0-3.6-0.3-4.9-1c-1.2-0.7-2.2-1.6-2.9-2.7c-0.7-1-1.1-2.3-1.4-3.7
	c-0.3-1.4-0.4-2.7-0.4-4c0-3,0.7-5.5,2.2-7.5c1.5-2,3.6-3.6,6.3-4.7l9.6-3.9c2.6-1.1,4.1-2.2,4.2-3.3h0.3V497z"/>
<path class="st1" d="M667.4,394.6c-1-1-2.4-1.7-4-2.3l-3.7-1.3c-1.5-0.5-2.7-1-3.4-1.6c-0.8-0.6-1.2-1.4-1.2-2.5
	c0-1.2,0.5-2.2,1.4-3c0.9-0.7,2.2-1.1,3.9-1.1c0.8,0,1.6,0.2,2.2,0.5c0.6,0.3,1.2,0.7,1.6,1.3c0.4,0.6,0.8,1.2,1.1,1.9
	c0.3,0.7,0.6,1.5,0.8,2.2h0.5v-5.9h-0.5c-0.2,0.3-0.5,0.4-0.8,0.4c-0.3,0-0.7-0.1-1-0.2c-0.3-0.1-0.6-0.2-0.9-0.3
	c-0.3-0.1-0.7-0.2-1.2-0.4c-0.5-0.1-1.1-0.2-1.8-0.2c-1.1,0-2.1,0.2-3,0.5c-0.9,0.3-1.7,0.8-2.4,1.5c-0.7,0.6-1.2,1.3-1.5,2.1
	c-0.4,0.8-0.6,1.8-0.6,2.7c0,1.1,0.1,2.1,0.5,2.8c0.3,0.7,0.8,1.3,1.3,1.8c0.6,0.5,1.1,0.8,1.7,1.1c0.6,0.2,1.1,0.5,1.7,0.7l4,1.4
	c0.9,0.3,1.7,0.7,2.3,1.3c0.7,0.5,1,1.5,1,2.8c0,1.5-0.5,2.6-1.3,3.3c-0.9,0.7-1.8,1-2.9,1c-1.3,0-2.4-0.2-3.4-0.7
	c-0.9-0.4-1.7-1-2.4-1.7c-0.6-0.7-1.1-1.5-1.5-2.3c-0.4-0.9-0.7-1.7-0.9-2.5h-0.6v6.5c-0.2,0.1-0.3,0.2-0.6,0.2
	c-0.4,0.2-1,0.2-1.4,0.2c-0.6,0-1-0.2-1.4-0.5c-0.3-0.4-0.5-1-0.5-2v-12.8c0-1-0.1-1.8-0.4-2.6c-0.3-0.9-0.7-1.6-1.4-2.3
	c-0.6-0.7-1.5-1.2-2.6-1.6c-1-0.4-2.4-0.6-3.9-0.6c-1.3,0-2.5,0.2-3.5,0.5c-1,0.3-1.9,0.7-2.5,1.3c-0.7,0.5-1.2,1.1-1.5,1.8
	c-0.3,0.7-0.5,1.4-0.5,2.1c0,0.7,0.2,1.2,0.4,1.6c0.3,0.4,1,0.6,2.1,0.6c0.7,0,1.2-0.2,1.5-0.5c0.3-0.3,0.5-0.7,0.5-1.2
	c0-0.3,0-0.7-0.1-1.3c-0.1-0.5-0.2-1.1-0.2-1.7c0-0.9,0.4-1.5,1.1-1.9c0.8-0.4,1.7-0.6,2.8-0.6c0.9,0,1.5,0.1,2.1,0.3
	c0.5,0.2,0.9,0.6,1.1,1.1c0.3,0.5,0.5,1,0.6,1.7c0.1,0.7,0.2,1.4,0.2,2.2c0,1-0.1,1.8-0.2,2.5c-0.2,0.6-0.4,1.1-0.9,1.5
	c-0.4,0.4-1,0.7-1.7,1c-0.7,0.3-1.7,0.6-2.8,1c-1,0.3-1.9,0.6-2.9,0.9c-1,0.3-1.8,0.6-2.6,1c-0.8,0.4-1.4,1-1.9,1.8
	c-0.5,0.7-0.7,1.7-0.7,2.9c0,0.5,0.1,1.1,0.2,1.7c0.2,0.6,0.5,1.1,1,1.6c0.5,0.5,1.1,0.9,2,1.2c0.9,0.3,2,0.5,3.4,0.5
	c1.3,0,2.3-0.2,3.2-0.4c0.8-0.3,1.4-0.6,1.9-1.1c0.5-0.5,0.9-0.9,1.1-1.4c0.2-0.5,0.4-0.9,0.6-1.1h0.1c0.3,1.3,0.8,2.3,1.5,3
	c0.7,0.7,1.9,1.1,3.5,1.1c0.9,0,1.9-0.2,2.5-0.4c0.5-0.2,0.9-0.4,1.3-0.7c0,0,0.1,0,0.4-0.2c0.1-0.1,0.2-0.1,0.3-0.1c0,0,0,0,0,0
	c0,0,0,0,0,0c0.1,0,0.2,0,0.2,0c0,0,0,0,0,0c0,0,0,0,0,0c0,0,0,0,0,0c0,0,0,0,0,0c0.3,0,0.7,0.1,1.2,0.2c0.4,0.2,0.9,0.3,1.4,0.5
	c0.6,0.2,1.1,0.3,1.8,0.5c0.6,0.1,1.3,0.2,2.1,0.2c1.3,0,2.5-0.2,3.5-0.6c1-0.4,1.8-1,2.6-1.6c0.7-0.7,1.2-1.5,1.6-2.4
	c0.4-0.9,0.5-1.8,0.5-2.7C668.9,396.8,668.4,395.6,667.4,394.6 M644.2,397.5c0,0.7-0.1,1.5-0.2,2.3c-0.1,0.8-0.3,1.6-0.7,2.3
	c-0.4,0.7-0.9,1.4-1.6,1.8c-0.7,0.5-1.6,0.7-2.8,0.7c-0.8,0-1.4-0.1-1.9-0.4c-0.5-0.3-0.9-0.6-1.2-1c-0.2-0.4-0.5-0.9-0.6-1.5
	c-0.1-0.5-0.1-1.1-0.1-1.6c0-1.2,0.3-2.2,0.9-3c0.6-0.8,1.4-1.4,2.5-1.9l3.9-1.5c1.1-0.5,1.6-0.9,1.7-1.4h0.1V397.5z"/>
</svg>
