<?xml version="1.0" encoding="utf-8"?>
<!-- Generator: Adobe Illustrator 21.0.2, SVG Export Plug-In . SVG Version: 6.00 Build 0)  -->
<svg version="1.1" xmlns="http://www.w3.org/2000/svg" xmlns:xlink="http://www.w3.org/1999/xlink" x="0px" y="0px"
	 viewBox="0 0 1190.5 841.9" style="enable-background:new 0 0 1190.5 841.9;" xml:space="preserve">
<style type="text/css">
	.st0{fill:#E62E3B;}
	.st1{fill:#FFFFFF;}
</style>
<g id="Capa_2">
	<rect x="-67.5" y="-42.4" class="st0" width="1384.8" height="966.5"/>
</g>
<g id="Capa_1">
	<polygon class="st1" points="764.7,429.5 703.4,491.8 703.4,429.5 591,429.5 591,434.7 698.1,434.7 698.1,505.2 766.8,434.7 
		1023.9,434.7 1023.9,429.5 	"/>
	<polygon class="st1" points="378.3,434.7 420.1,434.7 420.1,429.5 336.8,429.5 267,637.9 266.3,637.9 196.7,429.5 111.7,429.5 
		111.7,434.7 153.5,434.7 153.5,700 111.7,700 111.7,705.3 201,705.3 201,700 159.2,700 159.2,439.9 159.9,439.9 249.8,705.6 
		339.8,437.1 340.5,437.1 340.5,700 298.7,700 298.7,705.3 420.1,705.3 420.1,700 378.3,700 	"/>
	<path class="st1" d="M568.3,701.4c-3,1-6,1.7-8.7,1.7c-4.3,0-7.4-1.4-9.8-4c-2.3-2.5-3.4-7.6-3.4-15.1v-96.3c0-7.1-1-13.7-3-19.9
		c-2-6.5-5.4-12-10.3-17.1c-4.7-5.1-11-9-18.8-12c-7.7-3.1-17.4-4.5-29.1-4.5c-9.4,0-18.1,1.1-25.4,3.5c-7.4,2.4-13.7,5.5-18.7,9.6
		c-4.7,3.9-8.5,8.6-10.8,13.7c-2.6,5.2-3.9,10.7-3.9,16.2c0,4.9,1,8.9,3,12s7.3,4.7,15.6,4.7c4.7,0,8.1-1.3,10.8-3.8
		c2.6-2.4,3.9-5.5,3.9-9c0-2.1-0.6-5.4-1.3-9.6c-0.7-4.4-1.1-8.6-1.1-13c0-6.8,2.5-11.7,8.1-14.5c5.4-3,12.4-4.5,20.5-4.5
		c6.3,0,11.3,0.8,15.3,2.7c3.7,1.8,6.5,4.5,8.5,7.9c2,3.5,3.6,7.6,4.2,12.4c0.7,5.1,1.1,10.6,1.1,16.8c0,7.9-0.4,13.8-1.7,18.5
		c-1.1,4.5-3.1,8.3-6.1,11.1c-3,3-7.3,5.5-12.7,7.6c-5.3,2.1-12.3,4.5-20.6,7.5c-7,2.1-14,4.5-20.8,6.5c-7,2.1-13.3,4.6-19,7.9
		c-5.5,3.1-10.1,7.6-13.7,13c-3.4,5.3-5.1,12.7-5.1,21.7c0,3.8,0.4,8,1.7,12.4c1,4.7,3.4,8.6,6.8,12.3c3.6,3.5,8.6,6.6,14.7,9
		c6.3,2.6,14.7,3.8,25.3,3.8c9.3,0,17-1.1,23.1-3.2c6-2.3,10.8-5.1,14.4-8.2c3.7-3.4,6.4-6.5,8.1-10c1.9-3.7,3.2-6.5,4.3-8.9h0.7
		c2,9.6,5.7,17.1,11.1,22.3c5.4,5.2,14.3,7.9,26.3,7.9c6.4,0,11.8-1,16.5-2.8c4.6-2,8.4-4.4,11.7-6.8l-3-4.2
		C574.3,699,571.3,700.4,568.3,701.4 M514.1,649.2c0,5.2-0.3,11-1.3,17.2c-0.9,6.2-2.7,12.3-5.3,17.6c-2.7,5.5-6.4,9.9-11.7,13.7
		c-5.1,3.5-11.8,5.5-20.1,5.5c-5.7,0-10.4-1-14.3-3.1c-3.5-2.1-6.4-4.8-8.4-8.2c-2-3.1-3.4-6.9-4.3-11c-0.7-4.1-1-8-1-12
		c0-9,2.2-16.5,6.4-22.7c4.3-5.9,10.6-10.7,18.6-14.1l28.2-11.7c7.9-3.2,12-6.6,12.6-10h0.7v38.8H514.1z"/>
	<path class="st1" d="M730.6,539.2H677h-7.9h-45.7v-27.8V487H591v2.1v22.3v27.8h-29v5.5h29v123.1c0,13.7,3.7,24.4,11.2,31.7
		c7.4,7.5,20.4,11.3,39.3,11.3c7.5,0,13.9-1.1,18.9-3.8c3.3-1.5,6.1-3.5,8.7-5.9v4.1h90.5V700h-29.1L730.6,539.2L730.6,539.2z
		 M698.1,700h-27.6c0.7-0.7,1.5-1.4,2.2-2.3c3.2-3.8,5.5-7.6,7-11.7c1.5-4.1,2.6-7.9,3.4-11.3l-5.2-1.8c-1.7,8.4-5,15.9-10.4,22.7
		c-5.5,6.5-12.6,9.7-21.4,9.7c-2.5,0-5-0.4-7.7-1.1c-2.7-0.7-5-2.4-7.4-4.8c-2.3-2.4-4-5.9-5.5-10.6c-1.4-4.5-2-10.3-2-17.6V544.6
		h45.7h7.9h21.1L698.1,700L698.1,700z"/>
	<path class="st1" d="M1065.5,536.5c-9.4,0-17.2,7.6-17.2,17.5c0,10,7.8,17.6,17.2,17.6c9.2,0,17-7.5,17-17.6
		C1082.6,544,1074.7,536.5,1065.5,536.5 M1065.5,568.8c-8,0-14.1-6.3-14.1-14.9c0-8.5,6-14.8,14.1-14.8c7.8,0,13.9,6.3,13.9,14.8
		C1079.4,562.5,1073.3,568.8,1065.5,568.8"/>
	<path class="st1" d="M1073.5,549.5c0-3.9-2.3-5.9-7-5.9h-7.7v20.5h3v-8.9h3.3l5.4,8.9h3.3l-5.7-9.2
		C1071.2,554.9,1073.5,553.3,1073.5,549.5 M1065.2,552.9h-3.3v-6.5h4.2c2,0,4.4,0.4,4.4,3.1C1070.4,552.6,1067.9,552.9,1065.2,552.9
		"/>
	<path class="st1" d="M1026.2,210.7c-3-2.9-6.9-5.3-11.7-6.9l-10.9-3.8c-4.5-1.5-7.8-3.1-10-4.7c-2.3-1.8-3.5-4.3-3.5-7.5
		c0-3.8,1.3-6.7,4-8.9s6.5-3.3,11.2-3.3c2.6,0,4.7,0.4,6.7,1.4c1.8,0.9,3.4,2.2,4.7,3.8c1.2,1.7,2.4,3.6,3.2,5.7
		c0.8,2.2,1.7,4.3,2.5,6.5h1.5v-17.6h-1.5c-0.6,0.9-1.3,1.2-2.5,1.2s-2-0.2-2.8-0.5s-1.7-0.8-2.7-1c-1-0.5-2.3-0.8-3.7-1.2
		c-1.3-0.3-3-0.5-5.3-0.5c-3,0-6,0.5-8.7,1.6c-2.7,1-4.9,2.4-6.7,4.3c-2,1.9-3.5,4.1-4.7,6.5c-1,2.4-1.7,5.2-1.7,8.1
		c0,3.4,0.5,6.2,1.5,8.4s2.2,3.8,3.7,5.3c1.5,1.4,3.2,2.4,4.9,3.3c1.8,0.7,3.5,1.4,5,1.9l11.7,4.2c2.7,1,4.9,2.2,6.9,3.9
		c2,1.6,3,4.3,3,8.3c0,4.5-1.3,7.8-3.8,9.8s-5.4,3.1-8.5,3.1c-3.8,0-7.2-0.7-9.9-2c-2.7-1.4-5-3.1-6.8-5.3c-1.8-2.1-3.3-4.3-4.5-6.9
		c-1-2.6-2-5-2.7-7.5h-1.7V242h1.7c0.3-0.5,0.7-1,1.3-1.5c0.4-0.4,1.3-0.7,2.4-0.7c1,0,2.4,0.3,3.7,0.7c1.3,0.5,2.7,1,4.2,1.5
		c1.6,0.5,3.3,0.9,5.2,1.4s4,0.7,6,0.7c3.9,0,7.3-0.6,10.3-1.9c2.9-1.2,5.4-2.8,7.5-4.8c2-2,3.5-4.3,4.6-7c1.1-2.6,1.7-5.4,1.7-8.2
		C1030.7,217.4,1029.2,213.5,1026.2,210.7"/>
	<path class="st1" d="M622.5,242c1.6,0.1,3.1,0.1,4.7,0.2c1.5,0.1,3,0.2,4.3,0.3c1.4,0,2.7,0,4.2,0c6.9,0,13.1-0.9,18.2-2.4
		c5.2-1.6,9.5-3.8,12.9-6.6c3.5-2.8,6-6.2,7.8-10c1.7-3.9,2.5-8.2,2.5-12.9c0-4.3-1-8.3-2.9-11.7c-1.8-3.4-4.5-6.3-7.5-8.6
		c-3-2.4-6.5-4.2-10.2-5.5c-3.8-1.2-7.5-2.1-11.1-2.4v-0.3c3.5-0.4,6.9-1.2,10.1-2.6c3.2-1.4,6-3.1,8.5-5.2c2.5-2.2,4.4-4.8,5.9-7.7
		s2.2-6,2.2-9.4c0-2.6-0.5-5.3-1.5-8.3c-1-3.1-2.9-6-5.5-8.6c-2.7-2.6-6.5-4.8-11.2-6.7c-4.7-1.7-10.7-2.6-18.1-2.6
		c-1.5,0-2.8,0-4.4,0c-1.5,0.1-3.2,0.1-4.7,0.1c-1.7,0-3.2,0.1-4.8,0.2c-1.5,0-3,0-4.5,0H591v2.2h16.7v106H591v2.2h26.4
		C619.3,242,621,242,622.5,242 M622.9,133.8c1.3-0.2,2.8-0.3,4.8-0.4c1.8,0,3.7-0.1,5.4-0.1c2.7,0,5.3,0.3,8,0.8s5,1.6,7.2,3.2
		c2.2,1.6,3.9,4.1,5.3,7.3c1.3,3.3,2,7.6,2,13c0,4.7-0.5,8.6-1.4,11.8c-0.8,3-2.1,5.5-3.8,7.3c-1.7,1.9-3.7,3.1-6,3.9
		c-2.3,0.7-4.9,1-7.7,1h-13.9v-47.8H622.9z M622.9,183.9h16.5c6.8,0,11.9,2.3,15.4,7.1c3.4,4.7,5,11.3,5,19.6
		c0,5.7-0.5,10.5-1.5,14.4c-1,3.8-2.5,6.9-4.7,9.1c-2.1,2.4-5,4-8.3,4.8c-3.4,1-7.4,1.4-12.2,1.4c-2.7,0-4.7,0-6.2-0.2
		c-1.5,0-2.8-0.2-4-0.4V183.9z"/>
	<path class="st1" d="M687.2,221.6c0,3.1,0.3,5.8,0.8,7.9c0.5,2.1,1.2,3.8,1.9,5.2s1.5,2.4,2.3,3.2s1.7,1.4,2.4,1.9
		c1.3,1,3.4,2,5.8,2.9c2.5,0.9,5.7,1.4,9.9,1.4c3.2,0,6.2-0.5,8.6-1.6c2.5-1,4.6-2.4,6.5-4.3c1.9-1.6,3.4-3.6,4.7-5.7
		c1.3-2.1,2.4-4.1,3.2-6.2h0.3V242H758v-2.2h-11.7v-64.3h-24.4v2.1h11.4v35.9c0,4.4-0.6,8.3-1.9,11.8c-1.3,3.5-3,6.4-5,8.8
		c-1.9,2.5-4,4.5-6.4,5.8c-2.4,1.4-4.7,2-7,2c-2.5,0-4.7-0.5-6.2-1.5c-1.6-1-3-2.4-4-4c-1-1.8-1.7-3.8-2-6c-0.3-2.3-0.5-4.8-0.5-7.5
		v-47.5h-24.6v2.1h11.6L687.2,221.6L687.2,221.6z"/>
	<path class="st1" d="M774.5,203.5H821c0-5.7-1-10.5-2.8-14.3s-4.2-6.9-7-9.3c-2.7-2.3-5.7-4-8.9-5c-3.3-1-6.4-1.6-9.1-1.6
		c-4.8,0-9.2,1-13.4,3.1c-4,2.1-7.7,4.6-10.7,7.9c-3.1,3.3-5.5,7.1-7.3,11.4c-1.7,4.3-2.6,8.7-2.6,13.3c0,5.2,0.9,10,2.6,14.3
		c1.7,4.3,4,7.9,7.2,11.2c3.1,3,6.8,5.4,11.2,7.1c4.2,1.6,8.9,2.5,13.9,2.5s9.2-0.7,12.2-2.4c3.3-1.6,5.7-3.5,7.7-5.6
		c1.8-2.2,3.2-4.3,4-6.3c0.8-2.1,1.4-3.8,1.7-4.8l-2.2-0.6c-0.5,1.4-1,2.9-1.8,4.8c-0.8,2-2,4.1-3.7,6c-1.7,1.8-4,3.5-6.8,4.8
		c-2.9,1.4-6.5,2-10.9,2c-4.5,0-8-1-10.7-3c-2.7-1.9-4.7-4.3-6-7.4c-1.3-3.1-2.2-6.4-2.7-10c-0.3-3.8-0.5-7.4-0.5-10.8
		c0-1.6,0-3,0-4.1C774.5,205.6,774.5,204.6,774.5,203.5 M775.9,191.5c0.7-3.1,1.7-5.8,3-8.1c1.3-2.4,3-4.3,5.3-5.7
		c2.2-1.4,5-2.1,8.4-2.1c1.9,0,3.7,0.2,5.4,0.9c1.7,0.5,3,1.4,4.2,2.8c1.1,1.4,2.1,3.2,2.8,5.5c0.7,2.2,0.9,5.2,0.9,8.6v3.9
		c0,1.2,0,2.6-0.2,4h-31.1C774.9,197.9,775.2,194.7,775.9,191.5"/>
	<path class="st1" d="M895.6,194.5c0-7.1-2-12.4-6.2-15.8c-4.2-3.3-9.6-4.9-16.2-4.9c-4.3,0-8,0.7-11,2.1c-3,1.4-5.6,3.1-7.6,5
		s-3.6,4-4.8,6c-1.1,2.1-2,3.9-2.7,5.2h-0.2v-16.6h-24.3v2.1h11.6v62.2h-11.6v2.2h36.2v-2.2h-11.7v-35.1c0-4.1,0.7-7.9,2-11.5
		c1.2-3.5,3-6.5,5.2-9.1s4.7-4.6,7.7-6c2.9-1.5,6-2.2,9.2-2.2c3.9,0,6.8,1.3,8.7,3.9c1.8,2.6,2.7,5.9,2.7,9.8v50.2H871v2.2h36.3
		v-2.2h-11.7V194.5z"/>
	<path class="st1" d="M964.5,183.4c-3.4-3.1-7.2-5.5-11.4-7.4c-4.2-1.7-8.2-2.6-12.4-2.6c-4,0-8,0.9-12.2,2.6
		c-4.2,1.8-7.9,4.2-11.2,7.4c-3.4,3.2-6.2,6.9-8.4,11.3c-2.2,4.3-3.3,9-3.3,14c0,4.9,1,9.5,3,13.7c2.1,4.3,4.7,8.1,8,11.3
		c3.3,3.1,7,5.7,11.2,7.6c4.2,1.9,8.5,2.8,12.9,2.8c4.5,0,8.8-0.9,13-2.8c4.2-1.9,8-4.5,11.3-7.6c3.2-3.2,5.9-7,7.9-11.3
		s3-8.8,3-13.7c0-5-1.1-9.7-3.3-14C970.7,190.3,967.9,186.7,964.5,183.4 M959.3,226.4c-1.2,4.3-2.6,7.6-4.5,10
		c-1.7,2.4-3.9,3.8-6.2,4.5c-2.5,0.7-5,1.2-7.8,1.2c-2.7,0-5.2-0.5-7.6-1.2c-2.5-0.7-4.5-2.1-6.4-4.5c-1.8-2.4-3.3-5.7-4.5-10
		c-1-4.4-1.5-10.3-1.5-17.7c0-6.2,0.4-11.2,1.2-15.5s2-7.6,3.7-10.3c1.7-2.6,3.7-4.5,6.3-5.7c2.4-1.1,5.4-1.6,8.7-1.6
		c3.5,0,6.5,0.5,9,1.6c2.5,1.2,4.7,3.1,6.2,5.7c1.7,2.7,2.8,6,3.7,10.3c0.8,4.3,1.2,9.3,1.2,15.5C960.9,216.1,960.4,222,959.3,226.4
		"/>
	<path class="st1" d="M690,305.8h-24.6v2.2H677v62.1h-11h-0.5h-11V260.6h-24.7v2.1h11.7v55.5h-0.4c-1.3-4-3.7-7.4-7.2-10.2
		c-3.5-2.9-7.9-4.2-13.4-4.2c-4.3,0-8.5,1-12.2,2.9c-3.9,1.9-7.2,4.5-10.2,7.6c-2.9,3.1-5.2,6.9-6.9,11.1s-2.7,8.6-2.7,13.3
		c0,4.8,1,9.4,2.7,13.6c1.9,4.3,4.2,8.1,7.2,11.5c3,3.3,6.5,5.9,10.5,7.8c4,2,8.1,3,12.6,3c3.4,0,6.3-0.6,8.7-1.9
		c2.3-1.2,4.3-2.6,5.9-4.2c1.6-1.7,2.7-3.4,3.5-5.1s1.5-3.3,1.8-4.5h0.3v13.4h23.7h0.5h35.6v-2.2H690V305.8z M640.7,352.5
		c-0.5,3.6-1.5,6.9-3,9.8c-1.4,2.9-3.4,5.3-5.9,7.2c-2.5,1.8-6,2.8-10.2,2.8c-4.1,0-7.4-0.9-9.8-2.4c-2.4-1.7-4.2-4.1-5.4-7.2
		s-2-6.9-2.2-11.2c-0.3-4.4-0.6-9.3-0.6-14.7c0-4.7,0.3-9,0.8-12.7c0.5-3.8,1.4-6.9,2.7-9.7c1.2-2.7,3-4.8,5.2-6.2
		c2.3-1.5,5.2-2.2,8.7-2.2c3.8,0,6.9,0.7,9.2,2c2.5,1.3,4.5,3.1,6,5.2c0.9,1.4,1.9,2.9,2.5,4.6c0.7,1.6,1.3,3.6,1.7,5.9
		s0.7,4.9,0.8,7.9c0.2,2.8,0.2,6.4,0.2,10.4C641.4,345.3,641.2,348.8,640.7,352.5"/>
	<path class="st1" d="M699.3,259.4c-0.9,0.9-2.3,2.5-4.4,5.1l-17.7,22.2h2.1l25.8-18.9c0.5-0.4,1-0.9,1.7-1.5c0.7-0.7,1-1.5,1-2.6
		c0-1.5-0.5-2.7-1.5-3.8c-1-1.2-2.2-1.7-3.7-1.7C701.3,258.2,700.1,258.6,699.3,259.4"/>
	<path class="st1" d="M1029.6,627.1c-7.6-7.2-17.2-13-29-17.1l-27.6-9.3c-11-3.7-19.4-7.6-25.1-11.7c-5.7-4.4-8.5-10.6-8.5-18.9
		c0-9.3,3.3-16.8,10-22.3s16.1-8.3,28.1-8.3c6.4,0,11.7,1.1,16.4,3.5s8.5,5.5,11.7,9.7c3.2,4.1,5.8,8.9,8,14.1
		c2.3,5.4,4.3,10.9,6.1,16.5h4.1v-44.1h-4.1c-1.3,2.1-3.3,3.1-6.1,3.1c-2.7,0-5.1-0.6-7.1-1.4c-2-1-4.3-1.7-6.8-2.7
		s-5.5-1.7-8.9-2.7c-3.3-1-7.9-1.4-13.4-1.4c-7.7,0-15,1.3-21.7,3.8c-6.7,2.7-12.4,6.2-17.1,10.9c-4.8,4.5-8.7,10-11.4,16.2
		s-4.2,13-4.2,20.2c0,8.6,1.1,15.5,3.6,21c2.4,5.5,5.5,9.7,9.2,13.4c3.7,3.4,7.9,6.2,12.2,8c4.5,2,8.5,3.7,12.3,4.8l29.3,10.6
		c6.7,2.4,12.4,5.5,17.2,9.4c4.8,4.1,7.4,11,7.4,20.9c0,11.3-3.2,19.6-9.4,24.5c-6.3,5.1-13.5,7.6-21.5,7.6
		c-9.5,0-17.7-1.7-24.4-4.9c-6.9-3.4-12.6-7.8-17.2-13c-4.7-5.2-8.4-11-11.2-17.5c-2.7-6.3-5-12.5-6.7-18.7h-4.2v48.6
		c-1.2,0.7-2.5,1.3-3.8,1.7c-3,1-5.9,1.7-8.6,1.7c-4.3,0-7.5-1.4-9.8-4c-2.3-2.5-3.3-7.6-3.3-15.1v-96.3c0-7.1-1-13.7-3-19.9
		c-2-6.5-5.5-12-10.2-17.1c-4.8-5.1-11-9-18.9-12c-7.8-3.1-17.4-4.5-29.1-4.5c-9.5,0-17.9,1.1-25.4,3.5c-7.4,2.4-13.5,5.5-18.4,9.6
		c-5,3.9-8.7,8.6-11.2,13.7c-2.5,5.2-3.7,10.7-3.7,16.2c0,4.9,0.9,8.9,3,12c2,3.1,7.2,4.7,15.4,4.7c4.8,0,8.5-1.3,11-3.8
		c2.5-2.4,3.7-5.5,3.7-9c0-2.1-0.4-5.4-1.2-9.6c-0.7-4.4-1-8.6-1-13c0-6.8,2.7-11.7,8.1-14.5c5.4-3,12.3-4.5,20.6-4.5
		c6.2,0,11.2,0.8,15.1,2.7c3.8,1.8,6.7,4.5,8.7,7.9c2,3.5,3.4,7.6,4.2,12.4c0.7,5.1,1.1,10.6,1.1,16.8c0,7.9-0.6,13.8-1.8,18.5
		c-1,4.5-3.1,8.3-6.2,11.1c-3,3-7.2,5.5-12.6,7.6c-5.4,2.1-12.4,4.5-20.6,7.5c-7,2.1-14,4.5-20.9,6.5c-7,2.1-13.2,4.6-18.9,7.9
		c-5.7,3.1-10.2,7.6-13.7,13c-3.5,5.3-5.3,12.7-5.3,21.7c0,3.8,0.5,8,1.7,12.4c1.2,4.7,3.5,8.6,7,12.3c3.5,3.5,8.4,6.6,14.7,9
		c6.2,2.6,14.7,3.8,25.3,3.8c9.3,0,16.9-1.1,23-3.2c6-2.3,10.7-5.1,14.4-8.2c3.7-3.4,6.4-6.5,8.2-10c1.7-3.7,3.2-6.5,4.2-8.9h0.7
		c2,9.6,5.7,17.1,11.1,22.3c5.5,5.2,14.2,7.9,26.2,7.9c6.5,0,12-1,16.6-2.8c3.5-1.4,6.3-3.1,9-5.1c0,0,0.5-0.4,3.1-1.8
		c0.7-0.3,1.5-0.7,2.5-1c0,0,0,0,0.2,0s0.2,0,0.3,0c0.5,0,1.2,0,1.9,0l0,0l0,0c0,0,0.1,0,0.2,0l0,0c2.8,0,5.6,0.4,8.8,1.7
		c3.3,1.1,6.8,2.4,10.7,3.5c4,1.3,8.2,2.7,12.9,3.7c4.7,1.3,9.7,1.7,15.2,1.7c9.7,0,18.1-1.4,25.4-4.5c7.5-3.1,13.7-7.2,18.9-12.3
		c5.2-5.1,9.2-11,11.7-17.6c2.7-6.8,4-13.7,4-20.6C1040.9,643.7,1037.1,634.4,1029.6,627.1 M861.8,649.2c0,5.2-0.5,11-1.3,17.2
		c-0.9,6.2-2.7,12.3-5.4,17.6c-2.7,5.5-6.5,9.9-11.7,13.7c-5,3.5-11.7,5.5-20.1,5.5c-5.8,0-10.5-1-14.2-3.1
		c-3.5-2.1-6.5-4.8-8.5-8.2c-2-3.1-3.4-6.9-4-11c-0.8-4.1-1.2-8-1.2-12c0-9,2.2-16.5,6.4-22.7c4.3-5.9,10.5-10.7,18.6-14.1
		l28.2-11.7c7.8-3.2,11.9-6.6,12.4-10h0.8V649.2z"/>
	<path class="st1" d="M810.3,341c-3-2.9-6.9-5.2-11.7-6.8l-10.9-3.8c-4.5-1.4-7.8-2.9-10-4.7c-2.3-1.7-3.5-4.3-3.5-7.5
		c0-3.7,1.3-6.7,4-8.9c2.7-2.2,6.5-3.3,11.4-3.3c2.4,0,4.7,0.5,6.5,1.4c1.9,1,3.4,2.2,4.7,3.8c1.2,1.7,2.3,3.6,3.2,5.7
		c1,2.2,1.7,4.4,2.5,6.7h1.5v-17.7h-1.5c-0.5,0.8-1.3,1.2-2.5,1.2c-1,0-2-0.2-2.8-0.5s-1.7-0.7-2.7-1.1s-2.2-0.7-3.5-1.2
		c-1.3-0.3-3.2-0.5-5.4-0.5c-3.2,0-6,0.5-8.7,1.6c-2.7,1-5,2.5-6.9,4.4c-1.9,1.8-3.5,4-4.5,6.4c-1.2,2.5-1.7,5.3-1.7,8.1
		c0,3.4,0.4,6.2,1.3,8.4c1,2.2,2.2,3.9,3.7,5.3c1.6,1.4,3.2,2.5,5,3.3c1.7,0.7,3.3,1.4,4.9,2l11.7,4.1c2.7,0.9,5,2.1,6.8,3.8
		c2,1.6,3,4.4,3,8.3c0,4.5-1.3,7.7-3.8,9.8c-2.5,2-5.4,3.1-8.6,3.1c-3.8,0-7-0.7-9.8-2c-2.7-1.3-4.9-3.1-6.9-5.2
		c-1.8-2.1-3.3-4.5-4.3-6.9c-1.2-2.6-2-5.1-2.7-7.6h-1.7v19.4c-0.6,0.3-1,0.5-1.6,0.7c-1.1,0.5-3,0.5-4.1,0.5c-1.8,0-3-0.5-4-1.4
		c-0.9-1.2-1.3-3.1-1.3-6.1v-38.5c0-2.9-0.3-5.5-1.2-7.9c-0.8-2.7-2.2-4.8-4.2-6.9c-1.8-2-4.3-3.6-7.5-4.8
		c-3.1-1.2-6.9-1.9-11.5-1.9c-3.8,0-7.2,0.5-10.2,1.4c-3,1-5.5,2.2-7.4,3.9c-2,1.6-3.5,3.4-4.5,5.5s-1.5,4.2-1.5,6.4
		c0,2,0.5,3.6,1.2,4.8c0.8,1.2,3,1.9,6.2,1.9c1.9,0,3.5-0.5,4.5-1.4c1-1,1.4-2.2,1.4-3.6c0-0.9,0-2.1-0.3-3.9
		c-0.3-1.6-0.5-3.4-0.5-5.2c0-2.7,1.1-4.5,3.2-5.8c2.3-1.2,5-1.7,8.3-1.7c2.5,0,4.5,0.4,6,1.1s2.7,1.8,3.4,3.2c0.9,1.4,1.3,3,1.7,5
		c0.3,2,0.5,4.1,0.5,6.7c0,3.1-0.2,5.5-0.7,7.4c-0.5,1.8-1.3,3.3-2.5,4.5s-2.9,2.1-5,3c-2.2,1-4.9,1.9-8.2,3
		c-2.8,0.9-5.7,1.8-8.4,2.6c-2.8,0.8-5.3,1.9-7.5,3.1c-2.3,1.3-4.2,3.1-5.5,5.3c-1.5,2.1-2.2,5-2.2,8.6c0,1.5,0.3,3.2,0.7,5
		c0.5,1.9,1.3,3.4,2.8,4.9c1.4,1.4,3.4,2.6,5.9,3.6s5.9,1.5,10,1.5c3.8,0,6.9-0.5,9.3-1.3c2.4-0.9,4.2-1.9,5.7-3.3s2.5-2.7,3.3-4.1
		c0.7-1.4,1.2-2.6,1.7-3.4h0.2c0.8,3.8,2.3,6.8,4.5,8.9s5.7,3.2,10.4,3.2c2.7,0,5.7-0.5,7.4-1.2c1.4-0.7,2.6-1.3,3.7-2
		c0,0,0.2,0,1.3-0.7c0.2-0.2,0.5-0.3,0.9-0.3c0.1,0,0.1,0,0.1,0c0-0.1,0-0.1,0.1-0.1c0.2,0,0.5,0,0.7,0l0,0l0,0c0.1,0,0.1,0,0.1,0
		l0,0c1,0,2.2,0.3,3.5,0.7c1.2,0.5,2.7,1,4.2,1.5c1.6,0.5,3.3,1,5.2,1.5c1.8,0.4,3.8,0.7,6.2,0.7c3.7,0,7.2-0.7,10.2-1.9
		c2.9-1.3,5.4-2.9,7.6-4.8c2-2.1,3.6-4.4,4.7-7.2c1-2.6,1.5-5.4,1.5-8.3C814.8,347.7,813.3,343.9,810.3,341 M742.4,349.8
		c0,2.1-0.2,4.4-0.5,7c-0.3,2.4-1,4.8-2,6.9c-1.1,2.2-2.6,4.1-4.7,5.5c-2.1,1.4-4.8,2.1-8.2,2.1c-2.3,0-4.2-0.3-5.7-1.2
		c-1.4-0.9-2.5-1.9-3.4-3.1c-0.7-1.2-1.3-2.8-1.7-4.4c-0.3-1.6-0.3-3.3-0.3-4.8c0-3.6,0.8-6.7,2.5-9c1.7-2.5,4.2-4.3,7.4-5.7
		l11.3-4.6c3.2-1.4,4.7-2.7,4.9-4.1h0.3v15.4H742.4z"/>
</g>
</svg>
