<?xml version="1.0" encoding="utf-8"?>
<!-- Generator: Adobe Illustrator 16.0.0, SVG Export Plug-In . SVG Version: 6.00 Build 0)  -->
<!DOCTYPE svg PUBLIC "-//W3C//DTD SVG 1.1//EN" "http://www.w3.org/Graphics/SVG/1.1/DTD/svg11.dtd">
<svg version="1.1" id="FONDOS" xmlns="http://www.w3.org/2000/svg" xmlns:xlink="http://www.w3.org/1999/xlink" x="0px" y="0px"
	 width="24px" height="24px" viewBox="0 0 24 24" enable-background="new 0 0 24 24" xml:space="preserve">
<g>
	<path fill="#FB1831" d="M12,3c-4.963,0-9,4.038-9,9c0,4.963,4.037,9,9,9s9-4.037,9-9C21,7.038,16.963,3,12,3z M12,19.893
		c-4.352,0-7.893-3.541-7.893-7.893c0-4.351,3.541-7.892,7.893-7.892S19.893,7.649,19.893,12C19.893,16.352,16.352,19.893,12,19.893
		z"/>
	<circle fill="#FB1831" cx="12.143" cy="8.412" r="0.926"/>
	<path fill="#FB1831" d="M11.898,10.85c-0.305,0-0.553,0.248-0.553,0.552v4.709c0,0.305,0.248,0.553,0.553,0.553
		c0.307,0,0.555-0.248,0.555-0.553v-4.709C12.453,11.096,12.205,10.85,11.898,10.85z"/>
</g>
</svg>
