<?xml version="1.0" encoding="utf-8"?>
<!-- Generator: Adobe Illustrator 16.0.0, SVG Export Plug-In . SVG Version: 6.00 Build 0)  -->
<!DOCTYPE svg PUBLIC "-//W3C//DTD SVG 1.1//EN" "http://www.w3.org/Graphics/SVG/1.1/DTD/svg11.dtd">
<svg version="1.1" id="FONDOS" xmlns="http://www.w3.org/2000/svg" xmlns:xlink="http://www.w3.org/1999/xlink" x="0px" y="0px"
	 width="24px" height="24px" viewBox="0 0 24 24" enable-background="new 0 0 24 24" xml:space="preserve">
<path fill="#FB1831" stroke="#FB1831" stroke-width="0.3" stroke-miterlimit="10" d="M20.901,3.317
	c-0.104-0.105-0.262-0.134-0.396-0.073l-17.303,7.94c-0.14,0.065-0.221,0.211-0.2,0.363c0.02,0.152,0.137,0.273,0.287,0.298
	l7.762,1.301l0.887,7.333c0.02,0.153,0.137,0.275,0.287,0.302c0.02,0.004,0.039,0.005,0.06,0.005c0.13,0,0.253-0.074,0.312-0.194
	l8.367-16.877C21.029,3.584,21.004,3.425,20.901,3.317z M12.491,19.238l-0.779-6.434c-0.018-0.153-0.136-0.276-0.287-0.301
	l-6.9-1.158l15.377-7.056L12.491,19.238z"/>
</svg>
