<?xml version="1.0" encoding="utf-8"?>
<!-- Generator: Adobe Illustrator 16.0.0, SVG Export Plug-In . SVG Version: 6.00 Build 0)  -->
<!DOCTYPE svg PUBLIC "-//W3C//DTD SVG 1.1//EN" "http://www.w3.org/Graphics/SVG/1.1/DTD/svg11.dtd">
<svg version="1.1" id="FONDOS" xmlns="http://www.w3.org/2000/svg" xmlns:xlink="http://www.w3.org/1999/xlink" x="0px" y="0px"
	 width="30px" height="30px" viewBox="0 0 30 30" enable-background="new 0 0 30 30" xml:space="preserve">
<path fill="#FB1831" d="M26.314,14.313H5.38L15.853,4.179c0.272-0.264,0.28-0.698,0.016-0.971C15.605,2.936,15.172,2.93,14.9,3.193
	L3.209,14.507c-0.001,0.001-0.001,0.002-0.002,0.003C3.08,14.635,3,14.808,3,14.999c0,0.193,0.08,0.365,0.207,0.489
	c0.001,0.001,0.001,0.002,0.002,0.003L14.9,26.808C15.033,26.936,15.205,27,15.377,27c0.18,0,0.357-0.07,0.492-0.209
	c0.264-0.272,0.256-0.705-0.016-0.969L5.38,15.684h20.935c0.377,0,0.686-0.305,0.686-0.685C27,14.622,26.691,14.313,26.314,14.313z"
	/>
</svg>
