<?xml version="1.0" encoding="utf-8"?>
<!-- Generator: Adobe Illustrator 16.0.0, SVG Export Plug-In . SVG Version: 6.00 Build 0)  -->
<!DOCTYPE svg PUBLIC "-//W3C//DTD SVG 1.1//EN" "http://www.w3.org/Graphics/SVG/1.1/DTD/svg11.dtd">
<svg version="1.1" id="FONDOS" xmlns="http://www.w3.org/2000/svg" xmlns:xlink="http://www.w3.org/1999/xlink" x="0px" y="0px"
	 width="24px" height="24px" viewBox="0 0 24 24" enable-background="new 0 0 24 24" xml:space="preserve">
<g>
	<path fill="#C8C8C8" d="M15.5,14h-0.79l-0.28-0.27C15.411,12.59,16,11.11,16,9.5C16,5.911,13.09,3,9.5,3C5.911,3,3,5.911,3,9.5
		C3,13.09,5.911,16,9.5,16c1.61,0,3.09-0.589,4.231-1.57L14,14.71v0.79l5,4.991L20.491,19L15.5,14z M9.5,14C7.01,14,5,11.991,5,9.5
		C5,7.01,7.01,5,9.5,5C11.991,5,14,7.01,14,9.5C14,11.991,11.991,14,9.5,14z"/>
</g>
</svg>
