<?xml version="1.0" encoding="utf-8"?>
<!-- Generator: Adobe Illustrator 16.0.0, SVG Export Plug-In . SVG Version: 6.00 Build 0)  -->
<!DOCTYPE svg PUBLIC "-//W3C//DTD SVG 1.1//EN" "http://www.w3.org/Graphics/SVG/1.1/DTD/svg11.dtd">
<svg version="1.1" id="FONDOS" xmlns="http://www.w3.org/2000/svg" xmlns:xlink="http://www.w3.org/1999/xlink" x="0px" y="0px"
	 width="40px" height="40px" viewBox="0 0 40 40" enable-background="new 0 0 40 40" xml:space="preserve">
<g>
	<g>
		<g opacity="0.3">
			
				<image overflow="visible" opacity="0.4" width="123" height="150" xlink:href="98D197CFE80027FD.png"  transform="matrix(0.24 0 0 0.24 6.3477 3.001)">
			</image>
			<g>
				<path d="M19.998,5.001c-6.432,0-11.65,5.216-11.65,11.651c0,9.329,10.533,17.968,10.533,17.968c0.615,0.505,1.623,0.505,2.238,0
					c0,0,10.533-8.639,10.533-17.968C31.652,10.217,26.436,5.001,19.998,5.001z"/>
			</g>
		</g>
		<g>
			
				<image overflow="visible" opacity="0.4" width="123" height="150" xlink:href="98D197CFE80027FF.png"  transform="matrix(0.24 0 0 0.24 6.3477 3.001)">
			</image>
			<g>
				<path fill="#FFFFFF" d="M19.998,5.001c-6.432,0-11.65,5.216-11.65,11.651c0,9.329,10.533,17.968,10.533,17.968
					c0.615,0.505,1.623,0.505,2.238,0c0,0,10.533-8.639,10.533-17.968C31.652,10.217,26.436,5.001,19.998,5.001z"/>
			</g>
		</g>
	</g>
	<g>
		<path fill="#FB1831" d="M31.652,16.652c0,9.329-10.533,17.968-10.533,17.968c-0.615,0.505-1.623,0.505-2.238,0
			c0,0-10.533-8.639-10.533-17.968c0-6.435,5.219-11.651,11.65-11.651C26.436,5.001,31.652,10.217,31.652,16.652z"/>
		<path fill="#FFFFFF" d="M19.998,22.515c-3.229,0-5.859-2.629-5.859-5.862c0-3.232,2.631-5.861,5.859-5.861
			c3.232,0,5.865,2.629,5.865,5.861C25.863,19.884,23.23,22.515,19.998,22.515z"/>
	</g>
</g>
</svg>
