<?xml version="1.0" encoding="utf-8"?>
<!-- Generator: Adobe Illustrator 16.0.0, SVG Export Plug-In . SVG Version: 6.00 Build 0)  -->
<!DOCTYPE svg PUBLIC "-//W3C//DTD SVG 1.1//EN" "http://www.w3.org/Graphics/SVG/1.1/DTD/svg11.dtd">
<svg version="1.1" id="FONDOS" xmlns="http://www.w3.org/2000/svg" xmlns:xlink="http://www.w3.org/1999/xlink" x="0px" y="0px"
	 width="24px" height="24px" viewBox="0 0 24 24" enable-background="new 0 0 24 24" xml:space="preserve">
<path id="_x3C_Trazado_x3E_" fill="#FB1831" d="M14.945,11.217c1.027-0.851,1.682-2.14,1.682-3.574c0-2.559-2.08-4.643-4.639-4.643
	S7.35,5.08,7.35,7.639c0,1.431,0.652,2.713,1.674,3.564c-1.158,1.164-4.199,4.674-4.199,9.247c0,0.297,0.238,0.55,0.535,0.55h13.281
	c0.295,0,0.535-0.253,0.535-0.55C19.176,15.838,16.084,12.342,14.945,11.217z M8.42,7.639c0-1.969,1.6-3.571,3.568-3.571
	s3.568,1.603,3.568,3.571c0,1.966-1.6,3.568-3.568,3.568S8.42,9.605,8.42,7.639z M5.91,19.932c0.242-4.012,3.205-7.305,4.037-8.12
	c0.617,0.305,1.309,0.473,2.041,0.473c0.729,0,1.416-0.163,2.031-0.463c0.783,0.752,3.824,3.83,4.07,8.11H5.91z"/>
</svg>
