<?xml version="1.0" encoding="utf-8"?>
<!-- Generator: Adobe Illustrator 16.0.0, SVG Export Plug-In . SVG Version: 6.00 Build 0)  -->
<!DOCTYPE svg PUBLIC "-//W3C//DTD SVG 1.1//EN" "http://www.w3.org/Graphics/SVG/1.1/DTD/svg11.dtd">
<svg version="1.1" id="FONDOS" xmlns="http://www.w3.org/2000/svg" xmlns:xlink="http://www.w3.org/1999/xlink" x="0px" y="0px"
	 width="30px" height="30px" viewBox="0 0 30 30" enable-background="new 0 0 30 30" xml:space="preserve">
<g>
	<path fill="#FB1831" d="M10.27,22.89h9.461c0.316,0,0.574-0.257,0.574-0.573c0-0.317-0.258-0.574-0.574-0.574H10.27
		c-0.318,0-0.574,0.257-0.574,0.574C9.695,22.633,9.951,22.89,10.27,22.89z"/>
	<path fill="#FB1831" d="M10.27,20.763h9.461c0.316,0,0.574-0.257,0.574-0.573c0-0.317-0.258-0.574-0.574-0.574H10.27
		c-0.318,0-0.574,0.256-0.574,0.574C9.695,20.506,9.951,20.763,10.27,20.763z"/>
	<path fill="#FB1831" d="M22.701,7.97h-0.485V3.574C22.216,3.257,21.959,3,21.643,3H8.357C8.041,3,7.784,3.257,7.784,3.574V7.97
		H7.298c-1.897,0-3.44,1.543-3.44,3.44v7.104c0,1.897,1.543,3.44,3.44,3.44h0.486v4.472C7.784,26.743,8.041,27,8.357,27h13.285
		c0.316,0,0.573-0.257,0.573-0.574v-4.472h0.485c1.898,0,3.441-1.543,3.441-3.44V11.41C26.143,9.513,24.6,7.97,22.701,7.97z
		 M8.931,4.146h12.138V7.97H8.931V4.146z M21.068,25.852H8.931v-7.071h12.138V25.852z M24.996,18.514
		c0,1.265-1.029,2.293-2.295,2.293h-0.485v-2.026h1.24c0.317,0,0.573-0.257,0.573-0.574s-0.256-0.574-0.573-0.574h-1.813H8.357
		H6.714c-0.317,0-0.573,0.257-0.573,0.574s0.256,0.574,0.573,0.574h1.07v2.026H7.298c-1.265,0-2.294-1.029-2.294-2.293V11.41
		c0-1.264,1.029-2.294,2.294-2.294h1.06h13.285h1.059c1.266,0,2.295,1.03,2.295,2.294V18.514z"/>
	<circle fill="#FB1831" cx="21.643" cy="12.186" r="0.783"/>
</g>
</svg>
